<mxfile host="65bd71144e">
    <diagram id="wQF6aKym8i5nFiHGVKbn" name="Page-1">
        <mxGraphModel dx="922" dy="1600" grid="1" gridSize="10" guides="1" tooltips="1" connect="1" arrows="1" fold="1" page="1" pageScale="1" pageWidth="850" pageHeight="1100" math="0" shadow="0">
            <root>
                <mxCell id="0"/>
                <mxCell id="1" parent="0"/>
                <mxCell id="2" value="" style="whiteSpace=wrap;html=1;aspect=fixed;" vertex="1" parent="1">
                    <mxGeometry x="80" y="120" width="270" height="270" as="geometry"/>
                </mxCell>
                <mxCell id="3" value="ASHLEE MALOTT" style="rounded=0;whiteSpace=wrap;html=1;" vertex="1" parent="1">
                    <mxGeometry x="80" y="120" width="200" height="30" as="geometry"/>
                </mxCell>
                <mxCell id="6" value="Picture" style="whiteSpace=wrap;html=1;aspect=fixed;" vertex="1" parent="1">
                    <mxGeometry x="110" y="205" width="110" height="110" as="geometry"/>
                </mxCell>
                <mxCell id="9" value="About Me * Photos * Contact Me" style="rounded=0;whiteSpace=wrap;html=1;" vertex="1" parent="1">
                    <mxGeometry x="170" y="155" width="180" height="20" as="geometry"/>
                </mxCell>
                <mxCell id="21" value="Tag Line" style="whiteSpace=wrap;html=1;aspect=fixed;" vertex="1" parent="1">
                    <mxGeometry x="240" y="220" width="80" height="80" as="geometry"/>
                </mxCell>
                <mxCell id="22" value="" style="whiteSpace=wrap;html=1;aspect=fixed;" vertex="1" parent="1">
                    <mxGeometry x="480" y="400" width="270" height="270" as="geometry"/>
                </mxCell>
                <mxCell id="23" value="ASHLEE MALOTT" style="rounded=0;whiteSpace=wrap;html=1;" vertex="1" parent="1">
                    <mxGeometry x="480" y="400" width="200" height="30" as="geometry"/>
                </mxCell>
                <mxCell id="25" value="About Me * Photos * Contact Me" style="rounded=0;whiteSpace=wrap;html=1;" vertex="1" parent="1">
                    <mxGeometry x="570" y="435" width="180" height="20" as="geometry"/>
                </mxCell>
                <mxCell id="27" value="" style="whiteSpace=wrap;html=1;aspect=fixed;" vertex="1" parent="1">
                    <mxGeometry x="480" y="100" width="270" height="270" as="geometry"/>
                </mxCell>
                <mxCell id="28" value="ASHLEE MALOTT" style="rounded=0;whiteSpace=wrap;html=1;" vertex="1" parent="1">
                    <mxGeometry x="480" y="100" width="200" height="30" as="geometry"/>
                </mxCell>
                <mxCell id="30" value="About Me * Photos * Contact Me" style="rounded=0;whiteSpace=wrap;html=1;" vertex="1" parent="1">
                    <mxGeometry x="570" y="135" width="180" height="20" as="geometry"/>
                </mxCell>
                <mxCell id="32" value="" style="whiteSpace=wrap;html=1;aspect=fixed;" vertex="1" parent="1">
                    <mxGeometry x="480" y="-210" width="270" height="270" as="geometry"/>
                </mxCell>
                <mxCell id="33" value="ASHLEE MALOTT" style="rounded=0;whiteSpace=wrap;html=1;" vertex="1" parent="1">
                    <mxGeometry x="480" y="-210" width="200" height="30" as="geometry"/>
                </mxCell>
                <mxCell id="35" value="About Me * Photos * Contact Me" style="rounded=0;whiteSpace=wrap;html=1;" vertex="1" parent="1">
                    <mxGeometry x="570" y="-175" width="180" height="20" as="geometry"/>
                </mxCell>
                <mxCell id="36" value="Self Description" style="whiteSpace=wrap;html=1;aspect=fixed;" vertex="1" parent="1">
                    <mxGeometry x="615" y="-140" width="110" height="110" as="geometry"/>
                </mxCell>
                <mxCell id="37" value="" style="rounded=0;whiteSpace=wrap;html=1;direction=west;" vertex="1" parent="1">
                    <mxGeometry x="720" y="155" width="30" height="215" as="geometry"/>
                </mxCell>
                <mxCell id="39" value="Skills Description" style="rounded=0;whiteSpace=wrap;html=1;" vertex="1" parent="1">
                    <mxGeometry x="505" y="-30" width="220" height="70" as="geometry"/>
                </mxCell>
                <mxCell id="40" value="Picture" style="ellipse;whiteSpace=wrap;html=1;aspect=fixed;" vertex="1" parent="1">
                    <mxGeometry x="510" y="-125" width="80" height="80" as="geometry"/>
                </mxCell>
                <mxCell id="41" value="Image" style="whiteSpace=wrap;html=1;aspect=fixed;" vertex="1" parent="1">
                    <mxGeometry x="510" y="175" width="80" height="80" as="geometry"/>
                </mxCell>
                <mxCell id="42" value="Image" style="whiteSpace=wrap;html=1;aspect=fixed;" vertex="1" parent="1">
                    <mxGeometry x="615" y="205" width="80" height="80" as="geometry"/>
                </mxCell>
                <mxCell id="43" value="Image" style="whiteSpace=wrap;html=1;aspect=fixed;" vertex="1" parent="1">
                    <mxGeometry x="510" y="290" width="80" height="80" as="geometry"/>
                </mxCell>
                <mxCell id="44" value="Image" style="rounded=0;whiteSpace=wrap;html=1;" vertex="1" parent="1">
                    <mxGeometry x="615" y="310" width="75" height="60" as="geometry"/>
                </mxCell>
                <mxCell id="46" value="" style="whiteSpace=wrap;html=1;aspect=fixed;" vertex="1" parent="1">
                    <mxGeometry x="810" y="100" width="270" height="270" as="geometry"/>
                </mxCell>
                <mxCell id="47" value="ASHLEE MALOTT" style="rounded=0;whiteSpace=wrap;html=1;" vertex="1" parent="1">
                    <mxGeometry x="810" y="100" width="200" height="30" as="geometry"/>
                </mxCell>
                <mxCell id="54" value="Image" style="whiteSpace=wrap;html=1;aspect=fixed;" vertex="1" parent="1">
                    <mxGeometry x="850" y="155" width="185" height="185" as="geometry"/>
                </mxCell>
                <mxCell id="55" value="" style="whiteSpace=wrap;html=1;aspect=fixed;" vertex="1" parent="1">
                    <mxGeometry x="545" y="480" width="140" height="140" as="geometry"/>
                </mxCell>
                <mxCell id="56" value="Name" style="rounded=0;whiteSpace=wrap;html=1;" vertex="1" parent="1">
                    <mxGeometry x="570" y="490" width="90" height="20" as="geometry"/>
                </mxCell>
                <mxCell id="57" value="Email" style="rounded=0;whiteSpace=wrap;html=1;" vertex="1" parent="1">
                    <mxGeometry x="570" y="520" width="90" height="20" as="geometry"/>
                </mxCell>
                <mxCell id="58" value="Description" style="rounded=0;whiteSpace=wrap;html=1;" vertex="1" parent="1">
                    <mxGeometry x="570" y="550" width="90" height="40" as="geometry"/>
                </mxCell>
                <mxCell id="59" value="" style="ellipse;whiteSpace=wrap;html=1;" vertex="1" parent="1">
                    <mxGeometry x="595" y="600" width="40" height="10" as="geometry"/>
                </mxCell>
            </root>
        </mxGraphModel>
    </diagram>
</mxfile>